<?xml version="1.0" encoding="utf-8"?>
<!-- Svg Vector Icons : http://www.onlinewebfonts.com/icon -->
<!DOCTYPE svg PUBLIC "-//W3C//DTD SVG 1.1//EN" "http://www.w3.org/Graphics/SVG/1.1/DTD/svg11.dtd">
<svg version="1.1" xmlns="http://www.w3.org/2000/svg" xmlns:xlink="http://www.w3.org/1999/xlink" x="0px" y="0px" viewBox="0 0 1000 1000" enable-background="new 0 0 1000 1000" xml:space="preserve">
<metadata> Svg Vector Icons : http://www.onlinewebfonts.com/icon </metadata>
<g><g transform="translate(0.000000,512.000000) scale(0.100000,-0.100000)"><path d="M493,4988.6c-124.6-42.2-208.9-105.4-279.8-201.3C92.4,4620.6,100.1,4908.1,100.1,476.7v-4040.3l2622-1.9h2620.1l86.3-136.1c199.3-310.5,575-642.1,927.7-818.4c373.8-185.9,682.3-258.8,1104-258.8c300.9,0,502.2,30.7,759,115C8911-4439.5,9474.5-3906.7,9739-3232c118.8,306.7,161,542.4,161,895.1c0,235.7-7.7,339.2-42.2,498.3c-74.7,354.6-224.2,684.3-444.6,979.4c-126.5,170.6-419.8,446.6-588.4,553.9L8688.7-219l-5.7,2405.4l-5.8,2405.4l-53.7,109.3c-61.3,122.7-153.3,212.7-279.8,272.2l-88.2,40.2l-3833.3,3.8C822.7,5021.1,583.1,5019.2,493,4988.6z M8380.1,2023.5c0-1144.3-5.7-2079.6-13.4-2079.6c-9.6,1.9-74.7,23-149.5,47.9l-134.2,46l-5.7,958.3l-3.8,960.2h-2760h-2760V-496.9v-2453.3l1266.9-3.8l1265-5.8l46-134.2c24.9-72.8,46-139.9,47.9-147.6c0-9.6-1073.3-15.3-2386.2-15.3H406.8v3680v3680h3986.7h3986.7V2023.5z M7766.8,879.2V106.8l-312.4-1.9C7117,103,6963.7,78.1,6670.4-17.8c-668.9-222.3-1230.5-760.9-1489.2-1427.9c-122.7-312.4-161-523.3-162.9-885.5l-1.9-312.4H3939.2H2860.1v2146.7v2146.7h2453.3h2453.3V879.2z M8543-550.6c93.9-47.9,663.2-621,709.2-713c51.8-99.7,59.4-281.8,19.2-404.4c-30.7-93.9-74.8-145.7-458.1-530.9c-287.5-291.3-450.4-438.9-509.8-467.7c-103.5-51.8-293.2-67.1-392.9-34.5l-70.9,23l548.2,550.1c686.2,688.1,668.9,624.8,276,1010.1c-239.6,237.7-268.3,256.8-371.8,256.8c-70.9,0-97.8-23-622.9-548.2l-550.1-548.2l-23,70.9c-32.6,99.7-17.3,289.4,34.5,392.9c28.8,59.4,176.3,222.3,467.7,509.8c343.1,339.3,444.7,429.3,513.7,454.3C8230.6-485.4,8441.4-496.9,8543-550.6z M8188.4-1618.2c36.4-38.3,42.2-59.4,32.6-126.5c-9.6-76.7-47.9-118.8-642.1-711.1c-592.2-594.2-634.4-632.5-711.1-642.1c-109.2-15.3-174.4,42.2-174.4,155.3c0,76.7,9.6,88.2,647.8,724.5c636.3,638.2,647.8,647.8,724.5,647.8C8123.3-1570.3,8153.9-1581.8,8188.4-1618.2z M7017.4-1974.7l63.3-23l-548.2-548.2c-686.2-688.1-665.1-617.1-291.3-994.7c233.8-239.6,281.7-272.2,389.1-272.2c69,0,95.8,24.9,621,548.2l548.2,548.2l23-63.3c30.7-88.2,26.8-245.4-9.6-354.6c-28.8-80.5-90.1-153.3-452.3-517.5c-488.8-492.6-523.3-515.6-753.3-515.6c-120.8,0-170.6,9.6-235.8,44.1c-109.2,57.5-640.2,590.3-693.8,695.7c-59.4,115-70.9,291.3-28.8,421.7c30.7,93.9,72.8,143.7,477.3,546.2c364.2,366.1,458.1,448.5,529,473.4C6758.6-1949.8,6933-1945.9,7017.4-1974.7z"/><path d="M713.4,3029.7v-766.7h3680h3680v766.7v766.7h-3680h-3680V3029.7z M7766.8,3029.7v-460H4393.4H1020.1v460v460h3373.3h3373.3V3029.7z"/><path d="M713.4-496.9v-2453.3h766.7h766.7v2453.3v2453.3h-766.7H713.4V-496.9z M1940.1-496.9v-2146.7h-460h-460v2146.7v2146.7h460h460V-496.9z"/></g></g>
</svg>