<?xml version="1.0" encoding="utf-8"?>
<!-- Svg Vector Icons : http://www.onlinewebfonts.com/icon -->
<!DOCTYPE svg PUBLIC "-//W3C//DTD SVG 1.1//EN" "http://www.w3.org/Graphics/SVG/1.1/DTD/svg11.dtd">
<svg version="1.1" xmlns="http://www.w3.org/2000/svg" xmlns:xlink="http://www.w3.org/1999/xlink" x="0px" y="0px" viewBox="0 0 1000 1000" enable-background="new 0 0 1000 1000" xml:space="preserve">
<metadata> Svg Vector Icons : http://www.onlinewebfonts.com/icon </metadata>
<g><g><path d="M193.8,163.1c0,16.9-13.7,30.6-30.6,30.6l0,0c-16.9,0-30.6-13.7-30.6-30.6V40.6c0-16.9,13.7-30.6,30.6-30.6l0,0c16.9,0,30.6,13.7,30.6,30.6L193.8,163.1L193.8,163.1z M683.8,40.6c0-16.9-13.7-30.6-30.6-30.6l0,0c-16.9,0-30.6,13.7-30.6,30.6v122.5c0,16.9,13.7,30.6,30.6,30.6l0,0c16.9,0,30.6-13.7,30.6-30.6V40.6z M745,561.2c-101.3,0-183.7,82.4-183.7,183.7c0,101.3,82.4,183.8,183.7,183.8c101.3,0,183.8-82.4,183.8-183.8C928.8,643.7,846.3,561.2,745,561.2 M745,500c135.3,0,245,109.7,245,245c0,135.3-109.7,245-245,245c-135.3,0-245-109.7-245-245C500,609.7,609.7,500,745,500L745,500z M255,377.5H132.5V500H255V377.5z M255,561.2H132.5v122.5H255V561.2z M438.8,377.5H316.2V500h122.5V377.5L438.8,377.5z M438.8,561.2H316.2v122.5h122.5V561.2L438.8,561.2z M438.8,745H76.4c-2.8,0-5.1-2.9-5.1-6.1V316.2H745v122.5h61.3V199.9c0-37.2-29.7-67.4-66.3-67.4h-25.5v30.6c0,33.7-27.5,61.2-61.2,61.2c-33.8,0-61.2-27.5-61.2-61.2v-30.6H224.4v30.6c0,33.7-27.5,61.2-61.2,61.2c-33.8,0-61.3-27.5-61.3-61.2v-30.6H76.4c-36.7,0-66.4,30.2-66.4,67.4v539.1c0,37.1,29.7,67.3,66.4,67.3h362.4V745L438.8,745z M622.5,377.5H500V500h122.5V377.5z M836.9,714.4h-61.2v-61.3c0-16.9-13.7-30.6-30.6-30.6c-16.9,0-30.6,13.7-30.6,30.6v61.3h-61.2c-16.9,0-30.6,13.7-30.6,30.6c0,16.9,13.7,30.6,30.6,30.6h61.2v61.2c0,16.9,13.7,30.6,30.6,30.6c16.9,0,30.6-13.7,30.6-30.6v-61.2h61.2c16.9,0,30.6-13.7,30.6-30.6C867.5,728.1,853.8,714.4,836.9,714.4z"/></g><g></g><g></g><g></g><g></g><g></g><g></g><g></g><g></g><g></g><g></g><g></g><g></g><g></g><g></g><g></g></g>
</svg>