<?xml version="1.0" encoding="utf-8"?>
<!-- Svg Vector Icons : http://www.onlinewebfonts.com/icon -->
<!DOCTYPE svg PUBLIC "-//W3C//DTD SVG 1.1//EN" "http://www.w3.org/Graphics/SVG/1.1/DTD/svg11.dtd">
<svg version="1.1" xmlns="http://www.w3.org/2000/svg" xmlns:xlink="http://www.w3.org/1999/xlink" x="0px" y="0px" viewBox="0 0 1000 1000" enable-background="new 0 0 1000 1000" xml:space="preserve">
<metadata> Svg Vector Icons : http://www.onlinewebfonts.com/icon </metadata>
<g><g transform="translate(0.000000,512.000000) scale(0.100000,-0.100000)"><path d="M2986.9,4985.5c-40.2-26.8-1898.7-2088.2-2086.3-2316l-53.6-65.1v-3627.1v-3627.1l65.1-65.1l65.1-65.1l2019.3,3.8l2019.3,5.7l49.8,45.9c67,63.2,84.2,162.7,40.2,243.1c-19.2,34.5-47.9,68.9-65.1,78.5c-17.2,7.6-874.7,19.1-1906.4,24.9l-1875.8,9.6V-1105v3263.5l962.8,9.6l964.7,9.6l55.5,63.2l55.5,61.3v1158v1158l2245.2-3.8l2243.3-5.7l9.6-2903.6l9.6-2901.7l45.9-49.8c59.3-63.2,134-78.5,218.2-42.1c139.7,57.4,128.2-193.3,124.4,3171.6l-5.7,3026.1l-63.2,55.5L8063,5020H5549.9C3193.7,5020,3034.8,5018.1,2986.9,4985.5z M2889.3,2575.7c-3.8-3.8-348.4-3.8-767.5-1.9l-758,5.7l759.9,849.8l761.8,849.8l5.7-847.9C2893.1,2964.3,2893.1,2579.6,2889.3,2575.7z"/><path d="M5593.9-1928c-195.2-34.4-438.3-166.5-568.5-308.2c-74.6-82.3-178-271.8-216.3-398.1c-45.9-143.6-51.7-421.1-11.5-566.6c45.9-172.3,143.5-336.9,277.5-468.9c310.1-306.2,773.3-386.6,1158-204.8c246.9,116.8,321.5,222,252.6,354.1c-65.1,126.3-197.1,155-323.5,68.9c-107.2-72.7-214.4-103.4-359.8-103.4c-250.7,0-461.3,126.3-566.6,340.7c-45.9,95.7-53.6,132.1-53.6,281.4c0,151.2,7.7,185.7,53.6,271.8c63.2,120.6,158.9,220.1,268,277.5c65.1,36.4,111,44,254.6,44c166.5,0,178-1.9,289-70.8c149.3-91.9,233.5-97.6,313.9-17.2c44,45.9,55.5,72.7,55.5,143.6c0,105.3-40.2,155-197.1,248.8C6039.9-1928,5814-1889.8,5593.9-1928z"/><path d="M7913.7-1930c-216.3-36.4-470.9-147.4-530.2-233.5c-32.5-47.9-38.3-170.4-9.6-225.9c24.9-45.9,116.7-93.8,181.8-93.8c28.7,0,86.1,21.1,130.2,45.9c202.9,118.7,524.5,141.6,706.3,53.6c335-164.6,453.7-583.8,250.7-890c-134-202.9-313.9-290.9-558.9-277.5c-126.3,7.6-168.4,19.1-275.6,78.5c-174.2,97.6-277.5,90-344.5-24.9c-78.5-132.1-5.7-260.3,204.8-363.7c294.7-145.5,610.6-145.5,907.2,1.9c637.4,313.9,775.2,1144.6,269.9,1644.2C8600.9-1970.2,8273.6-1870.6,7913.7-1930z"/><path d="M6080.1-2751.1c-126.3-51.7-160.8-223.9-67-329.2l55.5-63.2l849.8-5.7c566.6-3.8,870.9,0,918.8,15.3c183.7,53.6,204.8,285.2,34.4,373.2c-47.9,24.9-187.6,28.7-903.4,26.8C6501.2-2733.9,6101.1-2741.5,6080.1-2751.1z"/></g></g>
</svg>