<?xml version="1.0" encoding="utf-8"?>
<!-- Svg Vector Icons : http://www.onlinewebfonts.com/icon -->
<!DOCTYPE svg PUBLIC "-//W3C//DTD SVG 1.1//EN" "http://www.w3.org/Graphics/SVG/1.1/DTD/svg11.dtd">
<svg version="1.1" xmlns="http://www.w3.org/2000/svg" xmlns:xlink="http://www.w3.org/1999/xlink" x="0px" y="0px" viewBox="0 0 1000 1000" enable-background="new 0 0 1000 1000" xml:space="preserve">
<metadata> Svg Vector Icons : http://www.onlinewebfonts.com/icon </metadata>
<g><path d="M385.7,785.8c-49,49-122.5,49-171.5,0c-49-49-49-122.5,0-171.5c49-49,147-147,147-147l-65.3-57.2c0,0-65.3,65.3-147,147c-81.7,81.7-81.7,212.3,0,285.8c81.7,81.7,212.3,81.7,285.8,0c81.7-81.7,147-147,147-147l-49-49C532.7,647,434.7,736.8,385.7,785.8z M843,157c-81.7-81.7-212.3-81.7-285.8,0c-81.7,81.7-147,147-147,147l57.2,57.2c0,0,98-98,147-147c49-49,122.5-49,171.5,0c49,49,49,122.5,0,171.5c-49,49-138.8,147-138.8,147l57.2,57.2c0,0,65.3-65.3,147-147C924.7,361.2,924.7,230.5,843,157z M704.2,353L647,295.8L295.8,647l57.2,57.2L704.2,353z"/><path d="M418.3,10v81.7H91.7v326.7H10V10H418.3z M990,990V581.7h-81.7v326.7H581.7V990H990z"/></g>
</svg>