<?xml version="1.0" encoding="utf-8"?>
<!-- Svg Vector Icons : http://www.onlinewebfonts.com/icon -->
<!DOCTYPE svg PUBLIC "-//W3C//DTD SVG 1.1//EN" "http://www.w3.org/Graphics/SVG/1.1/DTD/svg11.dtd">
<svg version="1.1" xmlns="http://www.w3.org/2000/svg" xmlns:xlink="http://www.w3.org/1999/xlink" x="0px" y="0px" viewBox="0 0 1000 1000" enable-background="new 0 0 1000 1000" xml:space="preserve">
<metadata> Svg Vector Icons : http://www.onlinewebfonts.com/icon </metadata>
<g><g transform="translate(0.000000,490.000000) scale(0.100000,-0.100000)"><path d="M838.7,3782.2c-344.4-82.3-644.9-398-717.6-750.1c-15.3-70.8-21-908.9-21-2745.9c0-2912.3-5.7-2770.7,118.6-3004.2c78.4-145.4,246.8-313.8,392.3-392.3c233.4-124.4,120.5-118.6,2495.2-118.6h2156.5l-30.6,109.1c-42.1,151.2-40.2,442,3.8,589.3c116.7,396.1,434.4,711.8,826.6,824.7c91.9,26.8,233.5,34.4,782.6,44l667.8,11.5L6759-957.5l-755.8,692.7l-155-156.9c-300.4-308.1-579.8-442-974-466.9c-411.4-26.8-767.3,118.6-1096.4,445.8l-179.9,178l-977.8-893.6c-539.6-491.8-1004.6-912.7-1035.2-937.6c-74.6-57.4-166.5-55.5-237.3,5.7c-74.6,63.1-91.9,141.6-51.7,223.9c19.1,36.4,442,436.3,1033.3,972.1C2880.3-395,3331.9,18.4,3331.9,24.1c1.9,5.7-455.4,509-1014.2,1119.4C1759,1753.9,1292.1,2274.4,1282.6,2301.1c-24.9,67,11.5,179.9,70.8,218.1c24.9,17.2,80.4,30.6,122.5,30.6c93.8,0-70.8,168.4,1475.3-1515.5c1284-1398.8,1278.2-1394.9,1544.2-1481c164.6-53.6,451.6-49.8,627.6,7.6c262.1,86.1,300.4,124.4,1580.5,1525.1c652.5,715.6,1224.6,1337.5,1270.6,1383.4c68.9,67,95.7,80.4,158.8,80.4c126.3,0,218.1-118.6,187.5-241.1c-7.6-26.8-147.3-197.1-313.8-377C6690.1,491,6435.6,213.5,6353.3,127.4l-93.8-97.6L7181.9-814l924.2-845.8h704.2h706.1l-5.7,2330.6l-5.7,2328.7l-42.1,126.3c-84.2,246.8-273.6,470.7-491.8,579.8c-227.7,114.8,30.6,107.1-4173.3,105.2C1544.7,3809,934.3,3805.2,838.7,3782.2z"/><path d="M6715-2088.4c-241.1-70.8-501.3-275.6-610.4-482.2c-103.3-191.3-139.7-480.3-89.9-696.5c78.5-344.4,401.8-654.4,757.8-729c216.2-44,553,13.4,675.5,112.9c99.5,82.3,76.5,254.5-42.1,319.6l-72.7,38.3l-118.6-42.1c-176-61.2-258.3-68.9-386.5-34.4c-545.3,143.5-606.6,872.6-89.9,1106c124.4,55.5,340.6,53.6,470.7-3.8c120.5-53.6,199-42.1,267.9,40.2c44,51.7,49.7,74.6,42.1,137.8c-13.4,95.7-67,145.4-218.1,202.8C7160.8-2065.4,6852.8-2050.1,6715-2088.4z"/><path d="M8678.2-2090.3c-317.6-86.1-436.3-252.6-285.1-403.7c80.4-80.4,126.3-82.3,285.1-13.4c302.3,132,650.6,3.8,780.7-287c67-149.2,63.2-350.2-7.6-495.6c-145.4-298.5-480.3-409.5-794.1-264.1c-156.9,72.7-225.8,67-300.4-23c-132-156.9,11.5-329.1,338.7-407.6c405.7-95.7,815.1,67,1046.7,413.3c208.6,311.9,210.5,744.4,5.7,1062C9518.3-2157.3,9076.2-1983.1,8678.2-2090.3z"/><path d="M7023-2901.6c-51.7-45.9-63.1-68.9-63.1-135.9s11.5-89.9,63.1-135.8l61.2-55.5h849.6h849.6l57.4,47.8c32.5,26.8,63.1,74.6,70.8,105.2c15.3,72.7-34.4,179.9-97.6,208.6c-32.5,15.3-300.4,21-887.9,21h-841.9L7023-2901.6z"/></g></g>
</svg>