<?xml version="1.0" encoding="utf-8"?>
<!-- Svg Vector Icons : http://www.onlinewebfonts.com/icon -->
<!DOCTYPE svg PUBLIC "-//W3C//DTD SVG 1.1//EN" "http://www.w3.org/Graphics/SVG/1.1/DTD/svg11.dtd">
<svg version="1.1" xmlns="http://www.w3.org/2000/svg" xmlns:xlink="http://www.w3.org/1999/xlink" x="0px" y="0px" viewBox="0 0 1000 1000" enable-background="new 0 0 1000 1000" xml:space="preserve">
<metadata> Svg Vector Icons : http://www.onlinewebfonts.com/icon </metadata>
<g><path d="M762.3,283.4V396l129-196l-129-190v106.5c0,0-403.5-46.7-455.8,405.2h27.7C498.1,207,762.3,283.4,762.3,283.4z"/><path d="M792.3,643.5c-4.2-12.9-21.6-23.2-39-23.2H123.3c-17.4,0-28.1,10.4-23.9,23.2l105.2,323.3c4.2,12.8,21.7,23.2,39,23.2h630.1c17.3,0,28-10.4,23.9-23.2L792.3,643.5z"/><path d="M852.8,419.1h-165c-36-2.2-56.7,56.4-67.3,102.6H334.3c-7.5,14.4-14.9,29.6-21.9,45.8c-4.6,10.4-7.2-33.9-5.9-45.2c0-0.2,0-0.4,0-0.5H240c-17.4,0-31.5,14-31.5,31.4v35.6h544.8c14.9,0,28.6,4.2,40.5,11.2c11.7,7.2,22.8,17.3,28.3,33.7l79.3,243.6V489.9C901.5,489.9,898.4,419.1,852.8,419.1z"/></g>
</svg>