<?xml version="1.0" encoding="utf-8"?>
<!-- Svg Vector Icons : http://www.onlinewebfonts.com/icon -->
<!DOCTYPE svg PUBLIC "-//W3C//DTD SVG 1.1//EN" "http://www.w3.org/Graphics/SVG/1.1/DTD/svg11.dtd">
<svg version="1.1" xmlns="http://www.w3.org/2000/svg" xmlns:xlink="http://www.w3.org/1999/xlink" x="0px" y="0px" viewBox="0 0 1000 1000" enable-background="new 0 0 1000 1000" xml:space="preserve">
<metadata> Svg Vector Icons : http://www.onlinewebfonts.com/icon </metadata>
<g><g><path d="M224.4,745H40.6C23.7,745,10,758.7,10,775.6v183.8c0,16.9,13.7,30.6,30.6,30.6h183.8c16.9,0,30.6-13.7,30.6-30.6V775.6C255,758.7,241.3,745,224.4,745z M193.8,898.1c0,16.9-13.7,30.6-30.6,30.6h-61.3c-16.9,0-30.6-13.7-30.6-30.6v-61.3c0-16.9,13.7-30.6,30.6-30.6h61.3c16.9,0,30.6,13.7,30.6,30.6V898.1z M959.4,806.3H408.1c-16.9,0-30.6,13.7-30.6,30.6v61.3c0,16.9,13.7,30.6,30.6,30.6h551.3c16.9,0,30.6-13.7,30.6-30.6v-61.3C990,819.9,976.3,806.3,959.4,806.3z M959.4,438.8H408.1c-16.9,0-30.6,13.7-30.6,30.6v61.3c0,16.9,13.7,30.6,30.6,30.6h551.3c16.9,0,30.6-13.7,30.6-30.6v-61.3C990,452.4,976.3,438.8,959.4,438.8z M224.4,10H40.6C23.7,10,10,23.7,10,40.6v183.8c0,16.9,13.7,30.6,30.6,30.6h183.8c16.9,0,30.6-44.3,30.6-61.3V40.6C255,23.7,241.3,10,224.4,10z M193.8,163.1c0,16.9-13.7,30.6-30.6,30.6h-61.3c-16.9,0-30.6-13.7-30.6-30.6v-61.3c0-16.9,13.7-30.6,30.6-30.6h61.3c16.9,0,30.6,13.7,30.6,30.6V163.1z M224.4,377.5H40.6c-16.9,0-30.6,13.7-30.6,30.6v183.8c0,16.9,13.7,30.6,30.6,30.6h183.8c16.9,0,30.6-13.7,30.6-30.6V408.1C255,391.2,241.3,377.5,224.4,377.5z M193.8,530.6c0,16.9-13.7,30.6-30.6,30.6h-61.3c-16.9,0-30.6-13.7-30.6-30.6v-61.3c0-16.9,13.7-30.6,30.6-30.6h61.3c16.9,0,30.6,13.7,30.6,30.6V530.6z M959.4,71.3H408.1c-16.9,0-30.6,13.7-30.6,30.6v61.3c0,16.9,13.7,30.6,30.6,30.6h551.3c16.9,0,30.6-13.7,30.6-30.6v-61.3C990,84.9,976.3,71.3,959.4,71.3z"/></g></g>
</svg>